<svg xmlns="http://www.w3.org/2000/svg" height="48px" viewBox="0 0 960 960" width="48px" >
  <defs>
    <linearGradient id="Gradient_moon" x1="0%" y1="50%" x2="100%" y2="50%"
        gradientTransform="rotate( 45 )">
      <stop offset="70%" stop-color="#a7a4ff" />
      <stop offset="100%" stop-color="#d38fdf" />
    </linearGradient>
    <linearGradient id="Gradient_alpha" x1="0%" y1="50%" x2="100%" y2="50%"
        gradientTransform="rotate(21)">
      <stop offset="35%" stop-color="#d38fdf" />
      <stop offset="55%" stop-color="#ff79be" />
    </linearGradient>

    <linearGradient id="Gradient5" x1="0%" y1="50%" x2="100%" y2="50%" gradientUnits="userSpaceOnUse"
        gradientTransform="rotate(30, 480, 480)">
      <stop offset="40%" stop-color="#a7a4ff" />
      <stop offset="80%" stop-color="#ff79be" />
    </linearGradient>
    <linearGradient id="Gradient4" x1="0" y1="270" x2="960" y2="810" gradientUnits="userSpaceOnUse">
      <stop offset="45%" stop-color="#a7a4ff" />
      <stop offset="80%" stop-color="#ff79be" />
    </linearGradient>
    <linearGradient id="Gradient3" x1="0" y1="480" x2="960" y2="820" gradientUnits="userSpaceOnUse">
      <stop offset="50%" stop-color="#ADAAFF" />
      <stop offset="60%" stop-color="#FF9ED0" />
    </linearGradient>
    <linearGradient id="Gradient2" x1="0" y1="-960" x2="960" y2="-300" gradientUnits="userSpaceOnUse">
      <stop offset="45%" stop-color="#ADAAFF" />
      <stop offset="80%" stop-color="#FF9ED0" />
    </linearGradient>
  </defs>
  <style>
    #moon
    {
      fill: url(#Gradient_moon);
    }
    #alpha
    {
      fill: url(#Gradient_alpha);
    }
  </style>
<path id="moon"
d="
M 153 787 l -64 -64 l 198 -197 q -56 -60 -92.5 -114.5 T 142 310 h 105 q 10 32 37 69 t 69 81 q 42 -46 79 -111.5 T 481 230 H 15 v -92 h 288 v -80 h 92 v 80 h 289 v 92 H 581 q -17 74 -63 154.5 T 416 526 l 67 68 l -36 99 l -98 -101 l -196 195 Z 
"
/>
<path id="alpha"
d="
M 449 901 l 187 -508 h 126 L 947 901 h -99 l -34 -87 H 581 l -34 87 h -98 Z 
M 612 727 H 783 L 697 498 L 612 727 Z
" 
/>
</svg>