<svg xmlns="http://www.w3.org/2000/svg" height="48px" viewBox="0 -960 960 960" width="48px" fill="#e3e3e3">
<path d="
M635-645Q671.41-645 698.71-617.39 726-589.77 726-554v422q0 36.19-27.29 64.09-27.3 27.91-63.71 27.91h-422q-36.19 0-63.59-27.91-27.41-27.9-27.41-64.09v-422q0-35.77 27.41-63.39 27.4-27.61 63.59-27.61h422Z
M635-554h-422v422h422v-422Z
"/>

<path d="
M786-796Q822.41-796 849.71-768.39 877-740.77 877-705v422Q877-246.81 849.71-218.91 822.41-191 786-191H676V-283.995H786V-705H364V-605H273V-705Q273-740.77 300.41-768.39 327.81-796 364-796H786Z
"/>

</svg>

